<svg width="25" height="25" viewBox="0 0 25 25" fill="none" xmlns="http://www.w3.org/2000/svg">
<g clip-path="url(#clip0_1182_4117)">
<path d="M17.0692 8.71648C17.0692 7.2849 16.5005 5.91196 15.4882 4.89969C14.4759 3.88742 13.103 3.31873 11.6714 3.31873C10.2398 3.31873 8.8669 3.88742 7.85463 4.89969C6.84235 5.91196 6.27366 7.2849 6.27366 8.71648C6.27366 11.4965 5.57236 13.3999 4.78898 14.6589C4.12826 15.7209 3.7978 16.2518 3.80989 16.4C3.82329 16.564 3.85807 16.6265 3.99022 16.7245C4.10957 16.8131 4.64774 16.8131 5.72389 16.8131H17.6189C18.6952 16.8131 19.2333 16.8131 19.3526 16.7245C19.4848 16.6265 19.5195 16.564 19.5329 16.4C19.545 16.2518 19.2147 15.7209 18.5538 14.6589C17.7705 13.3999 17.0692 11.4965 17.0692 8.71648Z" fill="white" fill-opacity="0.01"/>
<path d="M9.29121 20.4116C9.92554 20.9715 10.7588 21.3112 11.6714 21.3112C12.584 21.3112 13.4173 20.9715 14.0517 20.4116M17.0692 8.71648C17.0692 7.2849 16.5005 5.91196 15.4882 4.89969C14.4759 3.88742 13.103 3.31873 11.6714 3.31873C10.2398 3.31873 8.8669 3.88742 7.85463 4.89969C6.84235 5.91196 6.27366 7.2849 6.27366 8.71648C6.27366 11.4965 5.57236 13.3999 4.78898 14.6589C4.12826 15.7209 3.7978 16.2518 3.80989 16.4C3.82329 16.564 3.85807 16.6265 3.99022 16.7245C4.10957 16.8131 4.64774 16.8131 5.72389 16.8131H17.6189C18.6952 16.8131 19.2333 16.8131 19.3526 16.7245C19.4848 16.6265 19.5195 16.564 19.5329 16.4C19.545 16.2518 19.2147 15.7209 18.5538 14.6589C17.7705 13.3999 17.0692 11.4965 17.0692 8.71648Z" stroke="#6C737F" stroke-width="1.99943" stroke-linecap="round" stroke-linejoin="round"/>
</g>
<defs>
<clipPath id="clip0_1182_4117">
<rect width="23.99" height="23.99" fill="white" transform="translate(0.549927 0.319946)"/>
</clipPath>
</defs>
</svg>
