<svg width="20" height="20" viewBox="0 0 20 20" fill="none" xmlns="http://www.w3.org/2000/svg">
<g clip-path="url(#clip0_1182_4012)">
<path d="M17.4338 11.9966V3.508C17.4338 2.73631 16.6621 2.09323 15.8905 2.22185C15.376 2.35046 14.8615 2.35046 14.3471 2.35046C12.9323 2.35046 11.5175 1.96461 10.4886 1.19292C10.1028 0.935692 9.5883 0.935692 9.20246 1.19292C7.91631 1.96461 6.75877 2.35046 5.344 2.35046C4.70092 2.35046 4.05784 2.35046 3.54338 2.22185C2.77169 1.96462 2 2.60769 2 3.508V12.1252" stroke="#9DA4AE" stroke-width="1.7" stroke-miterlimit="10"/>
<path d="M2 6.46613V13.9258C2 14.9547 2.51446 15.7264 3.41477 16.2409L8.55938 18.9418C9.33107 19.3277 10.1028 19.3277 10.8745 18.9418L16.0191 16.3695C16.9194 15.9837 17.4338 15.0834 17.4338 14.0544V6.46613" stroke="#9DA4AE" stroke-width="1.7" stroke-miterlimit="10"/>
<path d="M9.97409 6.46613L10.8744 8.26675C11.003 8.52398 11.2602 8.65259 11.5175 8.65259L13.4467 8.90983C13.7039 8.90983 13.7039 9.16706 13.5753 9.29567L12.1605 10.7104C12.0319 10.8391 11.9033 11.0963 11.9033 11.3535L12.2892 13.2827C12.2892 13.54 12.1605 13.6686 11.9033 13.54L10.1027 12.6397C9.84547 12.5111 9.58824 12.5111 9.33101 12.6397L7.5304 13.54C7.40178 13.6686 7.14455 13.54 7.14455 13.2827L7.5304 11.3535C7.5304 11.0963 7.5304 10.8391 7.27317 10.7104L5.98701 9.42429C5.72978 9.29567 5.8584 9.03844 6.11563 9.03844L8.04486 8.78121C8.30209 8.78121 8.55932 8.52398 8.68794 8.39536L9.58824 6.59475C9.58824 6.33752 9.84547 6.33752 9.97409 6.46613Z" stroke="#9DA4AE" stroke-width="1.7" stroke-miterlimit="10"/>
</g>
<defs>
<clipPath id="clip0_1182_4012">
<rect width="20" height="20" fill="white"/>
</clipPath>
</defs>
</svg>
