<svg width="20" height="20" viewBox="0 0 20 20" fill="none" xmlns="http://www.w3.org/2000/svg">
<g clip-path="url(#clip0_1182_3974)">
<path opacity="0.12" d="M14.4592 13.75H7.32751C6.50243 13.75 6.08984 13.75 5.75859 13.5978C5.46672 13.4637 5.21982 13.2481 5.04759 12.9769C4.85209 12.6693 4.79651 12.2604 4.68526 11.4428L3.80859 5H17.5268C17.8033 5 17.9415 5 18.0388 5.05667C18.1241 5.10639 18.189 5.1848 18.2218 5.27792C18.2593 5.38408 18.2334 5.51983 18.1818 5.79142L17.0787 11.5823C16.9318 12.3539 16.8583 12.7397 16.6593 13.0285C16.484 13.2832 16.2413 13.4841 15.9583 13.6087C15.6373 13.75 15.2446 13.75 14.4592 13.75Z" fill="#9DA4AE"/>
<path d="M1.66797 1.66675H2.75647C2.96147 1.66675 3.06397 1.66675 3.14647 1.70441C3.21919 1.73765 3.2808 1.79111 3.32397 1.85841C3.37289 1.93466 3.38739 2.03616 3.41647 2.23916L3.81072 5.00008M3.81072 5.00008L4.68739 11.4429C4.79855 12.2605 4.85414 12.6693 5.04964 12.977C5.22189 13.2482 5.4688 13.4637 5.76072 13.5979C6.09197 13.7501 6.50447 13.7501 7.32964 13.7501H14.4612C15.2466 13.7501 15.6394 13.7501 15.9604 13.6087C16.2434 13.4841 16.4861 13.2832 16.6615 13.0286C16.8603 12.7397 16.9338 12.354 17.0808 11.5824L18.1838 5.7915C18.2356 5.51991 18.2614 5.38416 18.2239 5.278C18.191 5.18487 18.1261 5.10645 18.0408 5.05675C17.9436 5.00008 17.8055 5.00008 17.529 5.00008H3.81072ZM8.33464 17.5001C8.33464 17.9603 7.96155 18.3334 7.5013 18.3334C7.04105 18.3334 6.66797 17.9603 6.66797 17.5001C6.66797 17.0398 7.04105 16.6667 7.5013 16.6667C7.96155 16.6667 8.33464 17.0398 8.33464 17.5001ZM15.0013 17.5001C15.0013 17.9603 14.6282 18.3334 14.168 18.3334C13.7077 18.3334 13.3346 17.9603 13.3346 17.5001C13.3346 17.0398 13.7077 16.6667 14.168 16.6667C14.6282 16.6667 15.0013 17.0398 15.0013 17.5001Z" stroke="#9DA4AE" stroke-width="1.66667" stroke-linecap="round" stroke-linejoin="round"/>
</g>
<defs>
<clipPath id="clip0_1182_3974">
<rect width="20" height="20" fill="white"/>
</clipPath>
</defs>
</svg>
