<svg width="20" height="20" viewBox="0 0 20 20" fill="none" xmlns="http://www.w3.org/2000/svg">
<path fill-rule="evenodd" clip-rule="evenodd" d="M7.64297 3.47631C8.2681 2.85119 9.11592 2.5 10 2.5C10.8841 2.5 11.7319 2.85119 12.357 3.47631C12.9822 4.10143 13.3333 4.94928 13.3333 5.83333C13.3333 6.71739 12.9822 7.56523 12.357 8.19036C11.7319 8.8155 10.8841 9.16667 10 9.16667C9.11592 9.16667 8.2681 8.8155 7.64297 8.19036C7.01786 7.56523 6.66667 6.71739 6.66667 5.83333C6.66667 4.94928 7.01786 4.10143 7.64297 3.47631ZM10 4.16667C9.558 4.16667 9.13408 4.34226 8.8215 4.65482C8.50892 4.96738 8.33333 5.39131 8.33333 5.83333C8.33333 6.27536 8.50892 6.69928 8.8215 7.01184C9.13408 7.32441 9.558 7.5 10 7.5C10.442 7.5 10.8659 7.32441 11.1785 7.01184C11.4911 6.69928 11.6667 6.27536 11.6667 5.83333C11.6667 5.39131 11.4911 4.96738 11.1785 4.65482C10.8659 4.34226 10.442 4.16667 10 4.16667ZM11.8097 10.9763C12.4347 10.3512 13.2826 10 14.1667 10C15.0507 10 15.8986 10.3512 16.5237 10.9763C17.1488 11.6014 17.5 12.4493 17.5 13.3333C17.5 14.2174 17.1488 15.0652 16.5237 15.6903C15.8986 16.3155 15.0507 16.6667 14.1667 16.6667C13.2826 16.6667 12.4347 16.3155 11.8097 15.6903C11.1845 15.0652 10.8333 14.2174 10.8333 13.3333C10.8333 12.4493 11.1845 11.6014 11.8097 10.9763ZM14.1667 11.6667C13.7247 11.6667 13.3007 11.8422 12.9882 12.1548C12.6756 12.4674 12.5 12.8913 12.5 13.3333C12.5 13.7753 12.6756 14.1992 12.9882 14.5118C13.3007 14.8244 13.7247 15 14.1667 15C14.6087 15 15.0326 14.8244 15.3452 14.5118C15.6577 14.1992 15.8333 13.7753 15.8333 13.3333C15.8333 12.8913 15.6577 12.4674 15.3452 12.1548C15.0326 11.8422 14.6087 11.6667 14.1667 11.6667ZM5.83333 10C5.39559 10 4.96214 10.0862 4.55773 10.2537C4.1533 10.4212 3.78584 10.6667 3.47631 10.9763C3.16678 11.2858 2.92125 11.6533 2.75373 12.0577C2.58622 12.4622 2.5 12.8956 2.5 13.3333C2.5 13.7711 2.58622 14.2045 2.75373 14.6089C2.92125 15.0133 3.16678 15.3808 3.47631 15.6903C3.78584 15.9999 4.1533 16.2454 4.55773 16.4129C4.96214 16.5804 5.39559 16.6667 5.83333 16.6667C6.27108 16.6667 6.70452 16.5804 7.10894 16.4129C7.51337 16.2454 7.88083 15.9999 8.19036 15.6903C8.49992 15.3808 8.74542 15.0133 8.91292 14.6089C9.08042 14.2045 9.16667 13.7711 9.16667 13.3333C9.16667 12.8956 9.08042 12.4622 8.91292 12.0577C8.74542 11.6533 8.49992 11.2858 8.19036 10.9763C7.88083 10.6667 7.51337 10.4212 7.10894 10.2537C6.70452 10.0862 6.27108 10 5.83333 10ZM5.19552 11.7935C5.39773 11.7097 5.61447 11.6667 5.83333 11.6667C6.0522 11.6667 6.26893 11.7097 6.47114 11.7935C6.67335 11.8773 6.85708 12.0001 7.01184 12.1548C7.16661 12.3096 7.28937 12.4933 7.37313 12.6955C7.45689 12.8977 7.5 13.1145 7.5 13.3333C7.5 13.5522 7.45689 13.7689 7.37313 13.9712C7.28937 14.1733 7.16661 14.3571 7.01184 14.5118C6.85708 14.6666 6.67335 14.7893 6.47114 14.8732C6.26893 14.9569 6.0522 15 5.83333 15C5.61447 15 5.39773 14.9569 5.19552 14.8732C4.99332 14.7893 4.80958 14.6666 4.65482 14.5118C4.50006 14.3571 4.37729 14.1733 4.29353 13.9712C4.20977 13.7689 4.16667 13.5522 4.16667 13.3333C4.16667 13.1145 4.20977 12.8977 4.29353 12.6955C4.37729 12.4933 4.50006 12.3096 4.65482 12.1548C4.80958 12.0001 4.99332 11.8773 5.19552 11.7935Z" fill="#9DA4AE"/>
</svg>
