<svg width="20" height="20" viewBox="0 0 20 20" fill="none" xmlns="http://www.w3.org/2000/svg">
<g clip-path="url(#clip0_1182_3993)">
<path d="M7.1875 16.25C7.27038 16.25 7.34987 16.2171 7.40847 16.1585C7.46708 16.0999 7.5 16.0204 7.5 15.9375V14.375C7.5 14.2921 7.46708 14.2126 7.40847 14.154C7.34987 14.0954 7.27038 14.0625 7.1875 14.0625C7.10462 14.0625 7.02513 14.0954 6.96653 14.154C6.90792 14.2126 6.875 14.2921 6.875 14.375V15.9375C6.875 16.0204 6.90792 16.0999 6.96653 16.1585C7.02513 16.2171 7.10462 16.25 7.1875 16.25ZM7.1875 13.125C7.27038 13.125 7.34987 13.0921 7.40847 13.0335C7.46708 12.9749 7.5 12.8954 7.5 12.8125V11.25C7.5 11.1671 7.46708 11.0876 7.40847 11.029C7.34987 10.9704 7.27038 10.9375 7.1875 10.9375C7.10462 10.9375 7.02513 10.9704 6.96653 11.029C6.90792 11.0876 6.875 11.1671 6.875 11.25V12.8125C6.875 12.8954 6.90792 12.9749 6.96653 13.0335C7.02513 13.0921 7.10462 13.125 7.1875 13.125Z" fill="#9DA4AE"/>
<path d="M19.575 9.37498L19.575 9.37457C19.5746 9.17373 19.5207 8.97751 19.4199 8.80565C19.5133 8.62708 19.5653 8.42913 19.5713 8.22654C19.5786 7.97854 19.5167 7.7334 19.3925 7.51861L18.6983 6.31793L18.525 6.41779L18.6981 6.31768L18.6983 6.3179C18.6647 6.25959 18.6199 6.20847 18.5665 6.16746C18.5132 6.12644 18.4522 6.09634 18.3872 6.07887C18.3222 6.0614 18.2544 6.05691 18.1876 6.06566C18.1209 6.07441 18.0565 6.09622 17.9982 6.12985L17.9981 6.12991C17.6374 6.33822 17.2086 6.3947 16.8062 6.2869C16.4038 6.17911 16.0607 5.91588 15.8524 5.55512C15.6441 5.19437 15.5876 4.76563 15.6954 4.36323C15.8032 3.96084 16.0664 3.61774 16.4272 3.40943L16.4282 3.40883C16.545 3.34045 16.6302 3.22879 16.6652 3.09804C16.7003 2.9673 16.6823 2.82801 16.6154 2.71039L16.6148 2.70933L15.7813 1.26621L15.7809 1.26546C15.6385 1.02136 15.4055 0.843337 15.1326 0.770103C14.8596 0.69687 14.5688 0.734348 14.3234 0.874388L14.3225 0.874904L1.57141 8.23748H1.5625C1.26082 8.23748 0.971489 8.35732 0.758166 8.57065C0.544843 8.78397 0.425 9.0733 0.425 9.37498V11.25C0.425 11.3859 0.478995 11.5163 0.575108 11.6124C0.671221 11.7085 0.801577 11.7625 0.9375 11.7625C1.42318 11.7625 1.88896 11.9554 2.23239 12.2988C2.57582 12.6423 2.76875 13.1081 2.76875 13.5937C2.76875 14.0794 2.57582 14.5452 2.23239 14.8886C1.88896 15.232 1.42318 15.425 0.9375 15.425C0.801576 15.425 0.671221 15.479 0.575108 15.5751C0.478995 15.6712 0.425 15.8016 0.425 15.9375V17.5C0.425 17.8845 0.577767 18.2534 0.849695 18.5253L0.991117 18.3839L0.849696 18.5253C1.12162 18.7972 1.49044 18.95 1.875 18.95H18.125C18.5096 18.95 18.8784 18.7972 19.1503 18.5253C19.4222 18.2534 19.575 17.8845 19.575 17.5V15.9375C19.575 15.8016 19.521 15.6712 19.4249 15.5751C19.3288 15.479 19.1984 15.425 19.0625 15.425C18.5768 15.425 18.111 15.232 17.7676 14.8886C17.4242 14.5452 17.2313 14.0794 17.2313 13.5937C17.2313 13.1081 17.4242 12.6423 17.7676 12.2988C18.111 11.9554 18.5768 11.7625 19.0625 11.7625C19.1984 11.7625 19.3288 11.7085 19.4249 11.6124C19.521 11.5163 19.575 11.3859 19.575 11.25V9.37498ZM18.44 8.23749L18.44 8.23748H18.4375H3.62134L14.8342 1.76304C14.8342 1.763 14.8343 1.76295 14.8344 1.76291C14.8444 1.75726 14.8563 1.75576 14.8674 1.75875C14.8786 1.76174 14.8881 1.76898 14.894 1.77891C14.894 1.77898 14.894 1.77905 14.8941 1.77912L15.4965 2.82183C15.0709 3.19717 14.7786 3.70298 14.6674 4.26274C14.5446 4.88031 14.6504 5.52145 14.9652 6.06679C15.2799 6.61213 15.7821 7.02451 16.3783 7.22714C16.9187 7.4108 17.5029 7.41079 18.0408 7.23L18.5042 8.0326C18.533 8.08255 18.5474 8.13948 18.5458 8.1971C18.5454 8.21265 18.5438 8.22809 18.5411 8.24329C18.5075 8.23986 18.4738 8.23792 18.44 8.23749ZM1.45 17.5V16.4036C2.07597 16.2895 2.64783 15.9691 3.07272 15.4909C3.53725 14.9681 3.79383 14.2931 3.79383 13.5937C3.79383 12.8944 3.53725 12.2193 3.07272 11.6965C2.64783 11.2184 2.07597 10.898 1.45 10.7838V9.37498C1.45 9.34514 1.46185 9.31653 1.48295 9.29543C1.50405 9.27433 1.53266 9.26248 1.5625 9.26248H6.675V9.68748C6.675 9.8234 6.72899 9.95376 6.82511 10.0499C6.92122 10.146 7.05158 10.2 7.1875 10.2C7.32342 10.2 7.45378 10.146 7.54989 10.0499C7.64601 9.95376 7.7 9.8234 7.7 9.68748V9.26248H18.4375C18.4673 9.26248 18.496 9.27433 18.517 9.29543L18.6585 9.15401L18.517 9.29543C18.5381 9.31653 18.55 9.34514 18.55 9.37498V10.7838C17.924 10.898 17.3522 11.2184 16.9273 11.6965C16.4628 12.2193 16.2062 12.8944 16.2062 13.5937C16.2062 14.2931 16.4628 14.9681 16.9273 15.4909C17.3522 15.9691 17.924 16.2895 18.55 16.4036V17.5C18.55 17.6127 18.5052 17.7208 18.4255 17.8005C18.3458 17.8802 18.2377 17.925 18.125 17.925H7.7V17.5C7.7 17.3641 7.64601 17.2337 7.54989 17.1376C7.45378 17.0415 7.32342 16.9875 7.1875 16.9875C7.05158 16.9875 6.92122 17.0415 6.82511 17.1376C6.72899 17.2337 6.675 17.3641 6.675 17.5V17.925H1.875C1.76228 17.925 1.65418 17.8802 1.57448 17.8005C1.49478 17.7208 1.45 17.6127 1.45 17.5Z" fill="#9DA4AE" stroke="#9DA4AE" stroke-width="0.4"/>
<path d="M9.50063 15.6248L9.50063 15.6247C9.50089 15.4769 9.5305 15.3305 9.58776 15.1942C9.64499 15.058 9.72868 14.9344 9.834 14.8307L9.50063 15.6248ZM9.50063 15.6248C9.50035 15.8472 9.56618 16.0647 9.68975 16.2496C9.81332 16.4345 9.98906 16.5785 10.1946 16.6633C10.4002 16.7481 10.6264 16.7699 10.8444 16.7259C11.0624 16.6819 11.2624 16.5742 11.419 16.4163L11.4192 16.416L15.1445 12.6435L15.1448 12.6433C15.3462 12.4384 15.4591 12.1625 15.4591 11.8752C15.4591 11.5878 15.3462 11.3119 15.1448 11.107L15.1448 11.107L15.1408 11.1031C14.9339 10.9078 14.6602 10.7989 14.3756 10.7989C14.0911 10.7989 13.8173 10.9078 13.6104 11.1031L13.6104 11.1031L13.6081 11.1054L9.83417 14.8306L9.50063 15.6248ZM14.2598 11.7605L14.2599 11.7606L14.265 11.755C14.2799 11.7388 14.2979 11.7257 14.318 11.7166C14.338 11.7076 14.3597 11.7027 14.3817 11.7022C14.4037 11.7018 14.4256 11.7058 14.446 11.7141C14.4664 11.7224 14.4849 11.7347 14.5004 11.7503C14.5159 11.766 14.528 11.7846 14.5361 11.805C14.5442 11.8255 14.548 11.8474 14.5474 11.8694C14.5467 11.8914 14.5416 11.9131 14.5324 11.933C14.5231 11.953 14.5099 11.9709 14.4935 11.9856L14.4933 11.9854L14.487 11.9918L10.7627 15.7652C10.7626 15.7653 10.7625 15.7654 10.7624 15.7655C10.7442 15.7836 10.7226 15.798 10.6989 15.8079C10.675 15.8177 10.6495 15.8228 10.6237 15.8228C10.5978 15.8229 10.5723 15.8178 10.5484 15.8079C10.5246 15.798 10.5029 15.7836 10.4846 15.7653C10.4664 15.7471 10.4519 15.7254 10.442 15.7015C10.4321 15.6777 10.427 15.6521 10.427 15.6263C10.427 15.6005 10.4321 15.5749 10.4419 15.5511C10.4518 15.5274 10.4661 15.5058 10.4842 15.4876C10.4843 15.4875 10.4844 15.4874 10.4845 15.4873L14.2598 11.7605ZM10.625 13.275C10.9019 13.275 11.1726 13.1929 11.4028 13.0391C11.633 12.8852 11.8125 12.6666 11.9184 12.4108C12.0244 12.1549 12.0521 11.8734 11.9981 11.6019C11.9441 11.3303 11.8107 11.0808 11.6149 10.8851C11.4192 10.6893 11.1697 10.5559 10.8981 10.5019C10.6266 10.4479 10.3451 10.4756 10.0892 10.5816C9.83343 10.6875 9.61478 10.867 9.46094 11.0972C9.30711 11.3274 9.225 11.5981 9.225 11.875C9.225 12.2463 9.3725 12.6024 9.63505 12.8649C9.8976 13.1275 10.2537 13.275 10.625 13.275ZM10.625 11.4C10.7189 11.4 10.8108 11.4279 10.8889 11.4801C10.967 11.5322 11.0279 11.6064 11.0638 11.6932C11.0998 11.78 11.1092 11.8755 11.0909 11.9677C11.0725 12.0598 11.0273 12.1444 10.9609 12.2109C10.8944 12.2773 10.8098 12.3225 10.7177 12.3409C10.6255 12.3592 10.53 12.3498 10.4432 12.3138C10.3564 12.2779 10.2822 12.217 10.2301 12.1389C10.1779 12.0608 10.15 11.9689 10.15 11.875C10.15 11.749 10.2 11.6282 10.2891 11.5391C10.3782 11.45 10.499 11.4 10.625 11.4ZM14.375 14.225C14.0981 14.225 13.8274 14.3071 13.5972 14.4609C13.367 14.6148 13.1875 14.8334 13.0816 15.0892C12.9756 15.3451 12.9479 15.6266 13.0019 15.8981C13.0559 16.1697 13.1893 16.4192 13.3851 16.6149C13.5808 16.8107 13.8303 16.9441 14.1019 16.9981C14.3734 17.0521 14.6549 17.0244 14.9108 16.9184C15.1666 16.8125 15.3852 16.633 15.5391 16.4028C15.6929 16.1726 15.775 15.9019 15.775 15.625C15.775 15.2537 15.6275 14.8976 15.3649 14.6351C15.1024 14.3725 14.7463 14.225 14.375 14.225ZM14.375 16.1C14.2811 16.1 14.1892 16.0721 14.1111 16.0199C14.033 15.9678 13.9721 15.8936 13.9362 15.8068C13.9002 15.72 13.8908 15.6245 13.9091 15.5323C13.9275 15.4402 13.9727 15.3556 14.0391 15.2891C14.1056 15.2227 14.1902 15.1775 14.2823 15.1591C14.3745 15.1408 14.47 15.1502 14.5568 15.1862C14.6436 15.2221 14.7178 15.283 14.7699 15.3611C14.8221 15.4392 14.85 15.5311 14.85 15.625C14.85 15.751 14.8 15.8718 14.7109 15.9609C14.6218 16.05 14.501 16.1 14.375 16.1Z" fill="#9DA4AE" stroke="#9DA4AE" stroke-width="0.3"/>
</g>
<defs>
<clipPath id="clip0_1182_3993">
<rect width="20" height="20" fill="white"/>
</clipPath>
</defs>
</svg>
