<svg width="20" height="20" viewBox="0 0 20 20" fill="none" xmlns="http://www.w3.org/2000/svg">
<path d="M11.6666 1.66663H4.99992C4.55789 1.66663 4.13397 1.84222 3.82141 2.15478C3.50885 2.46734 3.33325 2.89127 3.33325 3.33329V16.6666C3.33325 17.1087 3.50885 17.5326 3.82141 17.8451C4.13397 18.1577 4.55789 18.3333 4.99992 18.3333H14.9999C15.4419 18.3333 15.8659 18.1577 16.1784 17.8451C16.491 17.5326 16.6666 17.1087 16.6666 16.6666V6.66663M11.6666 1.66663L16.6666 6.66663M11.6666 1.66663L11.6666 6.66663H16.6666M13.3333 10.8333H6.66659M13.3333 14.1666H6.66659M8.33325 7.49996H6.66659" stroke="#4E4E4E" stroke-width="2" stroke-linecap="round" stroke-linejoin="round"/>
</svg>
