<svg width="19" height="19" viewBox="0 0 19 19" fill="none" xmlns="http://www.w3.org/2000/svg">
<path d="M13.2429 7.99121L9.49499 11.7391L5.74707 7.99121" fill="white" fill-opacity="0.01"/>
<path d="M16.2413 11.7391V12.6386C16.2413 13.8981 16.2413 14.5277 15.9962 15.0088C15.7806 15.432 15.4366 15.776 15.0135 15.9915C14.5324 16.2366 13.9027 16.2366 12.6433 16.2366H6.34678C5.08733 16.2366 4.45768 16.2366 3.9766 15.9915C3.55348 15.7759 3.20947 15.4319 2.99389 15.0088C2.74878 14.5277 2.74878 13.8981 2.74878 12.6386V11.7391M13.2429 7.99122L9.49503 11.7391M9.49503 11.7391L5.74711 7.99122M9.49503 11.7391V2.74414" stroke="#111927" stroke-width="1.49884" stroke-linecap="round" stroke-linejoin="round"/>
</svg>
