<svg width="18" height="18" viewBox="0 0 18 18" fill="none" xmlns="http://www.w3.org/2000/svg">
<path opacity="0.12" d="M3.00708 5.85178C3.00708 4.59233 3.00708 3.96268 3.25219 3.4816C3.46779 3.05849 3.81179 2.71449 4.2349 2.4989C4.71598 2.25378 5.34563 2.25378 6.60508 2.25378H11.4024C12.6619 2.25378 13.2915 2.25378 13.7726 2.4989C14.1957 2.71448 14.5397 3.05848 14.7553 3.4816C15.0004 3.96268 15.0004 4.59233 15.0004 5.85178V15.7463L12.9391 14.2471L11.0651 15.7463L9.00375 14.2471L6.94239 15.7463L5.06843 14.2471L3.00708 15.7463V5.85178Z" fill="#9DA4AE"/>
<path d="M6.755 7.87566L8.25416 9.37483L11.6273 6.0017M15.0004 15.7463V5.85178C15.0004 4.59233 15.0004 3.96268 14.7553 3.4816C14.5397 3.05848 14.1957 2.71448 13.7726 2.4989C13.2915 2.25378 12.6619 2.25378 11.4024 2.25378H6.60508C5.34563 2.25378 4.71598 2.25378 4.2349 2.4989C3.81179 2.71449 3.46779 3.05849 3.25219 3.4816C3.00708 3.96268 3.00708 4.59233 3.00708 5.85178V15.7463L5.06843 14.2471L6.94239 15.7463L9.00375 14.2471L11.0651 15.7463L12.9391 14.2471L15.0004 15.7463Z" stroke="#9DA4AE" stroke-width="1.66667" stroke-linecap="round" stroke-linejoin="round"/>
</svg>
