<svg width="20" height="20" viewBox="0 0 20 20" fill="none" xmlns="http://www.w3.org/2000/svg">
<g clip-path="url(#clip0_1182_4004)">
<mask id="path-1-outside-1_1182_4004" maskUnits="userSpaceOnUse" x="-1.01587" y="-1.01593" width="22" height="22" fill="black">
<rect fill="white" x="-1.01587" y="-1.01593" width="22" height="22"/>
<path d="M13.2387 7.74502L7.74508 13.2386C7.61383 13.3654 7.43804 13.4355 7.25557 13.434C7.0731 13.4324 6.89855 13.3592 6.76952 13.2302C6.64049 13.1011 6.5673 12.9266 6.56572 12.7441C6.56413 12.5616 6.63428 12.3858 6.76105 12.2546L12.2547 6.76098C12.3859 6.63422 12.5617 6.56407 12.7442 6.56566C12.9266 6.56724 13.1012 6.64043 13.2302 6.76946C13.3592 6.89849 13.4324 7.07304 13.434 7.25551C13.4356 7.43797 13.3655 7.61377 13.2387 7.74502ZM8.08469 8.08463C8.23646 7.93305 8.33985 7.73985 8.3818 7.5295C8.42374 7.31914 8.40234 7.10106 8.32032 6.90286C8.23829 6.70467 8.09932 6.53525 7.92099 6.41606C7.74266 6.29686 7.53298 6.23324 7.31848 6.23324C7.10398 6.23324 6.8943 6.29686 6.71597 6.41606C6.53763 6.53525 6.39866 6.70467 6.31664 6.90286C6.23461 7.10106 6.21322 7.31914 6.25516 7.5295C6.29711 7.73985 6.4005 7.93305 6.55227 8.08463C6.75557 8.28768 7.03115 8.40173 7.31848 8.40173C7.60581 8.40173 7.88139 8.28768 8.08469 8.08463ZM11.915 11.9136C11.7633 12.0652 11.6599 12.2584 11.6179 12.4687C11.576 12.6791 11.5974 12.8972 11.6794 13.0954C11.7614 13.2936 11.9004 13.463 12.0787 13.5822C12.2571 13.7014 12.4668 13.765 12.6813 13.765C12.8958 13.765 13.1054 13.7014 13.2838 13.5822C13.4621 13.463 13.6011 13.2936 13.6831 13.0954C13.7651 12.8972 13.7865 12.6791 13.7446 12.4687C13.7026 12.2584 13.5992 12.0652 13.4475 11.9136C13.2442 11.7105 12.9686 11.5965 12.6813 11.5965C12.3939 11.5965 12.1183 11.7105 11.915 11.9136ZM19.9891 11.5796C19.9339 11.9461 19.7809 12.2911 19.5462 12.5781C19.3116 12.8651 19.004 13.0837 18.6558 13.2108L17.2959 13.7174L17.6856 15.1148C17.7847 15.4711 17.7874 15.8473 17.6933 16.205C17.5993 16.5626 17.4119 16.8889 17.1504 17.1504C16.889 17.4119 16.5627 17.5992 16.205 17.6933C15.8474 17.7873 15.4712 17.7846 15.1149 17.6856L13.7175 17.2959L13.2122 18.6557C13.0853 19.0038 12.8669 19.3112 12.5801 19.5459C12.2934 19.7805 11.9487 19.9336 11.5824 19.9891C11.471 20.007 11.3584 20.0163 11.2456 20.0169C10.9317 20.0173 10.6218 19.946 10.3396 19.8086C10.0574 19.6711 9.81029 19.471 9.61711 19.2236L8.71798 18.0864L7.51264 18.8881C7.20424 19.0934 6.84675 19.213 6.47688 19.2345C6.10701 19.256 5.73807 19.1787 5.40795 19.0106C5.07782 18.8424 4.79839 18.5894 4.59835 18.2775C4.39831 17.9657 4.28486 17.6062 4.26964 17.236L4.21119 15.7885L2.76367 15.73C2.39348 15.7148 2.03401 15.6014 1.72216 15.4013C1.41031 15.2013 1.15731 14.9219 0.989126 14.5917C0.820945 14.2616 0.743644 13.8927 0.765158 13.5228C0.786672 13.1529 0.906226 12.7954 1.11155 12.487L1.91325 11.2817L0.776113 10.3812C0.485781 10.1514 0.261794 9.84845 0.127118 9.50353C-0.00755713 9.15861 -0.0480754 8.78407 0.00971841 8.41833C0.0675123 8.05259 0.221539 7.70879 0.456004 7.4222C0.69047 7.13561 0.996938 6.91653 1.34399 6.78743L2.70382 6.28219L2.3141 4.88478C2.21472 4.5284 2.21184 4.15201 2.30573 3.79415C2.39962 3.43629 2.58693 3.1098 2.84847 2.84812C3.11001 2.58644 3.43639 2.39896 3.79421 2.30487C4.15202 2.21078 4.52841 2.21346 4.88484 2.31265L6.28225 2.70236L6.78749 1.34392C6.91659 0.996877 7.13567 0.690409 7.42226 0.455943C7.70885 0.221478 8.05265 0.0674512 8.41839 0.00965737C8.78414 -0.0481365 9.15867 -0.00761816 9.50359 0.127057C9.84852 0.261733 10.1514 0.48572 10.3812 0.776052L11.2818 1.91319L12.4871 1.11149C12.7955 0.906165 13.153 0.786611 13.5229 0.765097C13.8927 0.743583 14.2617 0.820884 14.5918 0.989064C14.9219 1.15725 15.2013 1.41025 15.4014 1.7221C15.6014 2.03395 15.7149 2.39342 15.7301 2.76361L15.7886 4.21112L17.2361 4.26958C17.6063 4.2848 17.9657 4.39825 18.2776 4.59829C18.5894 4.79833 18.8424 5.07776 19.0106 5.40789C19.1788 5.73801 19.2561 6.10695 19.2346 6.47682C19.2131 6.84669 19.0935 7.20418 18.8882 7.51258L18.0865 8.71653L19.2236 9.61705C19.5157 9.8453 19.7409 10.148 19.8756 10.4933C20.0103 10.8386 20.0495 11.2138 19.9891 11.5796ZM18.3607 10.7096L16.7197 9.41106C16.5828 9.30267 16.4916 9.14676 16.4642 8.97427C16.4369 8.80178 16.4754 8.62532 16.5722 8.47991L17.7288 6.7415C17.7973 6.63876 17.8373 6.51963 17.8445 6.39635C17.8518 6.27306 17.8262 6.15006 17.7702 6.03997C17.7142 5.92989 17.63 5.83667 17.5261 5.7699C17.4222 5.70313 17.3024 5.66521 17.179 5.66003L15.0912 5.57513C14.9165 5.56792 14.7509 5.49518 14.6273 5.37138C14.5038 5.24758 14.4314 5.08181 14.4245 4.90705L14.3382 2.81928C14.3328 2.69601 14.2947 2.57639 14.2279 2.47269C14.161 2.36899 14.0678 2.28493 13.9577 2.22913C13.8477 2.17333 13.7248 2.14778 13.6016 2.15512C13.4784 2.16246 13.3594 2.20242 13.2568 2.27089L11.5198 3.42612C11.3745 3.52374 11.1978 3.56291 11.0249 3.53582C10.852 3.50872 10.6957 3.41735 10.5872 3.27998L9.29003 1.64039C9.21338 1.54385 9.11246 1.4694 8.9976 1.42465C8.88274 1.37991 8.75805 1.36648 8.6363 1.38573C8.51454 1.40499 8.40008 1.45624 8.30463 1.53424C8.20918 1.61224 8.13616 1.7142 8.09304 1.82968L7.36371 3.788C7.30363 3.95204 7.1837 4.08727 7.02802 4.16654C6.87234 4.2458 6.69243 4.26322 6.52443 4.2153L4.51182 3.653C4.3929 3.61952 4.2672 3.6183 4.14764 3.64948C4.02809 3.68065 3.91899 3.7431 3.83155 3.83039C3.74412 3.91768 3.6815 4.02668 3.65013 4.14618C3.61876 4.26569 3.61977 4.39139 3.65306 4.51037L4.21536 6.52437C4.26227 6.69236 4.24438 6.87184 4.16525 7.02727C4.08612 7.1827 3.9515 7.30275 3.78807 7.36365L1.82974 8.09298C1.71426 8.1361 1.6123 8.20912 1.5343 8.30457C1.4563 8.40002 1.40505 8.51448 1.38579 8.63623C1.36654 8.75799 1.37997 8.88268 1.42471 8.99754C1.46946 9.1124 1.54391 9.21332 1.64045 9.28997L3.28004 10.5886C3.41698 10.6969 3.50817 10.8528 3.5355 11.0253C3.56283 11.1978 3.52431 11.3743 3.42758 11.5197L2.27095 13.2581C2.20279 13.3608 2.16313 13.4798 2.15604 13.6029C2.14896 13.726 2.17469 13.8487 2.23062 13.9586C2.28654 14.0685 2.37065 14.1615 2.47434 14.2282C2.57802 14.2949 2.69756 14.3329 2.82073 14.3382L4.9085 14.4245C5.08302 14.4317 5.24845 14.5042 5.37195 14.6277C5.49546 14.7512 5.56801 14.9167 5.57519 15.0912L5.66149 17.1789C5.66667 17.3023 5.70459 17.4221 5.77136 17.526C5.83813 17.6299 5.93134 17.7142 6.04143 17.7701C6.15152 17.8261 6.27452 17.8518 6.3978 17.8445C6.52108 17.8372 6.64021 17.7972 6.74295 17.7287L8.47997 16.5735C8.62533 16.4762 8.802 16.4372 8.97481 16.4643C9.14761 16.4914 9.30388 16.5825 9.41251 16.7196L10.7097 18.3592C10.7864 18.4558 10.8873 18.5302 11.0021 18.575C11.117 18.6197 11.2417 18.6331 11.3634 18.6139C11.4852 18.5946 11.5997 18.5434 11.6951 18.4654C11.7906 18.3874 11.8636 18.2854 11.9067 18.1699L12.636 16.2116C12.6969 16.0482 12.817 15.9136 12.9724 15.8344C13.1278 15.7553 13.3073 15.7374 13.4753 15.7843L15.4879 16.3452C15.6069 16.3791 15.7328 16.3805 15.8526 16.3491C15.9723 16.3178 16.0814 16.2549 16.1685 16.1671C16.2569 16.0806 16.3201 15.9717 16.3515 15.8521C16.3829 15.7325 16.3812 15.6066 16.3467 15.4879L15.7844 13.4739C15.7375 13.3059 15.7554 13.1264 15.8345 12.971C15.9136 12.8155 16.0482 12.6955 16.2117 12.6346L18.17 11.9066C18.2855 11.8635 18.3874 11.7905 18.4654 11.695C18.5434 11.5996 18.5947 11.4851 18.6139 11.3634C18.6332 11.2416 18.6198 11.1169 18.575 11.0021C18.5303 10.8872 18.4572 10.7863 18.3607 10.7096Z"/>
</mask>
<path d="M13.2387 7.74502L7.74508 13.2386C7.61383 13.3654 7.43804 13.4355 7.25557 13.434C7.0731 13.4324 6.89855 13.3592 6.76952 13.2302C6.64049 13.1011 6.5673 12.9266 6.56572 12.7441C6.56413 12.5616 6.63428 12.3858 6.76105 12.2546L12.2547 6.76098C12.3859 6.63422 12.5617 6.56407 12.7442 6.56566C12.9266 6.56724 13.1012 6.64043 13.2302 6.76946C13.3592 6.89849 13.4324 7.07304 13.434 7.25551C13.4356 7.43797 13.3655 7.61377 13.2387 7.74502ZM8.08469 8.08463C8.23646 7.93305 8.33985 7.73985 8.3818 7.5295C8.42374 7.31914 8.40234 7.10106 8.32032 6.90286C8.23829 6.70467 8.09932 6.53525 7.92099 6.41606C7.74266 6.29686 7.53298 6.23324 7.31848 6.23324C7.10398 6.23324 6.8943 6.29686 6.71597 6.41606C6.53763 6.53525 6.39866 6.70467 6.31664 6.90286C6.23461 7.10106 6.21322 7.31914 6.25516 7.5295C6.29711 7.73985 6.4005 7.93305 6.55227 8.08463C6.75557 8.28768 7.03115 8.40173 7.31848 8.40173C7.60581 8.40173 7.88139 8.28768 8.08469 8.08463ZM11.915 11.9136C11.7633 12.0652 11.6599 12.2584 11.6179 12.4687C11.576 12.6791 11.5974 12.8972 11.6794 13.0954C11.7614 13.2936 11.9004 13.463 12.0787 13.5822C12.2571 13.7014 12.4668 13.765 12.6813 13.765C12.8958 13.765 13.1054 13.7014 13.2838 13.5822C13.4621 13.463 13.6011 13.2936 13.6831 13.0954C13.7651 12.8972 13.7865 12.6791 13.7446 12.4687C13.7026 12.2584 13.5992 12.0652 13.4475 11.9136C13.2442 11.7105 12.9686 11.5965 12.6813 11.5965C12.3939 11.5965 12.1183 11.7105 11.915 11.9136ZM19.9891 11.5796C19.9339 11.9461 19.7809 12.2911 19.5462 12.5781C19.3116 12.8651 19.004 13.0837 18.6558 13.2108L17.2959 13.7174L17.6856 15.1148C17.7847 15.4711 17.7874 15.8473 17.6933 16.205C17.5993 16.5626 17.4119 16.8889 17.1504 17.1504C16.889 17.4119 16.5627 17.5992 16.205 17.6933C15.8474 17.7873 15.4712 17.7846 15.1149 17.6856L13.7175 17.2959L13.2122 18.6557C13.0853 19.0038 12.8669 19.3112 12.5801 19.5459C12.2934 19.7805 11.9487 19.9336 11.5824 19.9891C11.471 20.007 11.3584 20.0163 11.2456 20.0169C10.9317 20.0173 10.6218 19.946 10.3396 19.8086C10.0574 19.6711 9.81029 19.471 9.61711 19.2236L8.71798 18.0864L7.51264 18.8881C7.20424 19.0934 6.84675 19.213 6.47688 19.2345C6.10701 19.256 5.73807 19.1787 5.40795 19.0106C5.07782 18.8424 4.79839 18.5894 4.59835 18.2775C4.39831 17.9657 4.28486 17.6062 4.26964 17.236L4.21119 15.7885L2.76367 15.73C2.39348 15.7148 2.03401 15.6014 1.72216 15.4013C1.41031 15.2013 1.15731 14.9219 0.989126 14.5917C0.820945 14.2616 0.743644 13.8927 0.765158 13.5228C0.786672 13.1529 0.906226 12.7954 1.11155 12.487L1.91325 11.2817L0.776113 10.3812C0.485781 10.1514 0.261794 9.84845 0.127118 9.50353C-0.00755713 9.15861 -0.0480754 8.78407 0.00971841 8.41833C0.0675123 8.05259 0.221539 7.70879 0.456004 7.4222C0.69047 7.13561 0.996938 6.91653 1.34399 6.78743L2.70382 6.28219L2.3141 4.88478C2.21472 4.5284 2.21184 4.15201 2.30573 3.79415C2.39962 3.43629 2.58693 3.1098 2.84847 2.84812C3.11001 2.58644 3.43639 2.39896 3.79421 2.30487C4.15202 2.21078 4.52841 2.21346 4.88484 2.31265L6.28225 2.70236L6.78749 1.34392C6.91659 0.996877 7.13567 0.690409 7.42226 0.455943C7.70885 0.221478 8.05265 0.0674512 8.41839 0.00965737C8.78414 -0.0481365 9.15867 -0.00761816 9.50359 0.127057C9.84852 0.261733 10.1514 0.48572 10.3812 0.776052L11.2818 1.91319L12.4871 1.11149C12.7955 0.906165 13.153 0.786611 13.5229 0.765097C13.8927 0.743583 14.2617 0.820884 14.5918 0.989064C14.9219 1.15725 15.2013 1.41025 15.4014 1.7221C15.6014 2.03395 15.7149 2.39342 15.7301 2.76361L15.7886 4.21112L17.2361 4.26958C17.6063 4.2848 17.9657 4.39825 18.2776 4.59829C18.5894 4.79833 18.8424 5.07776 19.0106 5.40789C19.1788 5.73801 19.2561 6.10695 19.2346 6.47682C19.2131 6.84669 19.0935 7.20418 18.8882 7.51258L18.0865 8.71653L19.2236 9.61705C19.5157 9.8453 19.7409 10.148 19.8756 10.4933C20.0103 10.8386 20.0495 11.2138 19.9891 11.5796ZM18.3607 10.7096L16.7197 9.41106C16.5828 9.30267 16.4916 9.14676 16.4642 8.97427C16.4369 8.80178 16.4754 8.62532 16.5722 8.47991L17.7288 6.7415C17.7973 6.63876 17.8373 6.51963 17.8445 6.39635C17.8518 6.27306 17.8262 6.15006 17.7702 6.03997C17.7142 5.92989 17.63 5.83667 17.5261 5.7699C17.4222 5.70313 17.3024 5.66521 17.179 5.66003L15.0912 5.57513C14.9165 5.56792 14.7509 5.49518 14.6273 5.37138C14.5038 5.24758 14.4314 5.08181 14.4245 4.90705L14.3382 2.81928C14.3328 2.69601 14.2947 2.57639 14.2279 2.47269C14.161 2.36899 14.0678 2.28493 13.9577 2.22913C13.8477 2.17333 13.7248 2.14778 13.6016 2.15512C13.4784 2.16246 13.3594 2.20242 13.2568 2.27089L11.5198 3.42612C11.3745 3.52374 11.1978 3.56291 11.0249 3.53582C10.852 3.50872 10.6957 3.41735 10.5872 3.27998L9.29003 1.64039C9.21338 1.54385 9.11246 1.4694 8.9976 1.42465C8.88274 1.37991 8.75805 1.36648 8.6363 1.38573C8.51454 1.40499 8.40008 1.45624 8.30463 1.53424C8.20918 1.61224 8.13616 1.7142 8.09304 1.82968L7.36371 3.788C7.30363 3.95204 7.1837 4.08727 7.02802 4.16654C6.87234 4.2458 6.69243 4.26322 6.52443 4.2153L4.51182 3.653C4.3929 3.61952 4.2672 3.6183 4.14764 3.64948C4.02809 3.68065 3.91899 3.7431 3.83155 3.83039C3.74412 3.91768 3.6815 4.02668 3.65013 4.14618C3.61876 4.26569 3.61977 4.39139 3.65306 4.51037L4.21536 6.52437C4.26227 6.69236 4.24438 6.87184 4.16525 7.02727C4.08612 7.1827 3.9515 7.30275 3.78807 7.36365L1.82974 8.09298C1.71426 8.1361 1.6123 8.20912 1.5343 8.30457C1.4563 8.40002 1.40505 8.51448 1.38579 8.63623C1.36654 8.75799 1.37997 8.88268 1.42471 8.99754C1.46946 9.1124 1.54391 9.21332 1.64045 9.28997L3.28004 10.5886C3.41698 10.6969 3.50817 10.8528 3.5355 11.0253C3.56283 11.1978 3.52431 11.3743 3.42758 11.5197L2.27095 13.2581C2.20279 13.3608 2.16313 13.4798 2.15604 13.6029C2.14896 13.726 2.17469 13.8487 2.23062 13.9586C2.28654 14.0685 2.37065 14.1615 2.47434 14.2282C2.57802 14.2949 2.69756 14.3329 2.82073 14.3382L4.9085 14.4245C5.08302 14.4317 5.24845 14.5042 5.37195 14.6277C5.49546 14.7512 5.56801 14.9167 5.57519 15.0912L5.66149 17.1789C5.66667 17.3023 5.70459 17.4221 5.77136 17.526C5.83813 17.6299 5.93134 17.7142 6.04143 17.7701C6.15152 17.8261 6.27452 17.8518 6.3978 17.8445C6.52108 17.8372 6.64021 17.7972 6.74295 17.7287L8.47997 16.5735C8.62533 16.4762 8.802 16.4372 8.97481 16.4643C9.14761 16.4914 9.30388 16.5825 9.41251 16.7196L10.7097 18.3592C10.7864 18.4558 10.8873 18.5302 11.0021 18.575C11.117 18.6197 11.2417 18.6331 11.3634 18.6139C11.4852 18.5946 11.5997 18.5434 11.6951 18.4654C11.7906 18.3874 11.8636 18.2854 11.9067 18.1699L12.636 16.2116C12.6969 16.0482 12.817 15.9136 12.9724 15.8344C13.1278 15.7553 13.3073 15.7374 13.4753 15.7843L15.4879 16.3452C15.6069 16.3791 15.7328 16.3805 15.8526 16.3491C15.9723 16.3178 16.0814 16.2549 16.1685 16.1671C16.2569 16.0806 16.3201 15.9717 16.3515 15.8521C16.3829 15.7325 16.3812 15.6066 16.3467 15.4879L15.7844 13.4739C15.7375 13.3059 15.7554 13.1264 15.8345 12.971C15.9136 12.8155 16.0482 12.6955 16.2117 12.6346L18.17 11.9066C18.2855 11.8635 18.3874 11.7905 18.4654 11.695C18.5434 11.5996 18.5947 11.4851 18.6139 11.3634C18.6332 11.2416 18.6198 11.1169 18.575 11.0021C18.5303 10.8872 18.4572 10.7863 18.3607 10.7096Z" fill="#9DA4AE"/>
<path d="M13.2387 7.74502L7.74508 13.2386C7.61383 13.3654 7.43804 13.4355 7.25557 13.434C7.0731 13.4324 6.89855 13.3592 6.76952 13.2302C6.64049 13.1011 6.5673 12.9266 6.56572 12.7441C6.56413 12.5616 6.63428 12.3858 6.76105 12.2546L12.2547 6.76098C12.3859 6.63422 12.5617 6.56407 12.7442 6.56566C12.9266 6.56724 13.1012 6.64043 13.2302 6.76946C13.3592 6.89849 13.4324 7.07304 13.434 7.25551C13.4356 7.43797 13.3655 7.61377 13.2387 7.74502ZM8.08469 8.08463C8.23646 7.93305 8.33985 7.73985 8.3818 7.5295C8.42374 7.31914 8.40234 7.10106 8.32032 6.90286C8.23829 6.70467 8.09932 6.53525 7.92099 6.41606C7.74266 6.29686 7.53298 6.23324 7.31848 6.23324C7.10398 6.23324 6.8943 6.29686 6.71597 6.41606C6.53763 6.53525 6.39866 6.70467 6.31664 6.90286C6.23461 7.10106 6.21322 7.31914 6.25516 7.5295C6.29711 7.73985 6.4005 7.93305 6.55227 8.08463C6.75557 8.28768 7.03115 8.40173 7.31848 8.40173C7.60581 8.40173 7.88139 8.28768 8.08469 8.08463ZM11.915 11.9136C11.7633 12.0652 11.6599 12.2584 11.6179 12.4687C11.576 12.6791 11.5974 12.8972 11.6794 13.0954C11.7614 13.2936 11.9004 13.463 12.0787 13.5822C12.2571 13.7014 12.4668 13.765 12.6813 13.765C12.8958 13.765 13.1054 13.7014 13.2838 13.5822C13.4621 13.463 13.6011 13.2936 13.6831 13.0954C13.7651 12.8972 13.7865 12.6791 13.7446 12.4687C13.7026 12.2584 13.5992 12.0652 13.4475 11.9136C13.2442 11.7105 12.9686 11.5965 12.6813 11.5965C12.3939 11.5965 12.1183 11.7105 11.915 11.9136ZM19.9891 11.5796C19.9339 11.9461 19.7809 12.2911 19.5462 12.5781C19.3116 12.8651 19.004 13.0837 18.6558 13.2108L17.2959 13.7174L17.6856 15.1148C17.7847 15.4711 17.7874 15.8473 17.6933 16.205C17.5993 16.5626 17.4119 16.8889 17.1504 17.1504C16.889 17.4119 16.5627 17.5992 16.205 17.6933C15.8474 17.7873 15.4712 17.7846 15.1149 17.6856L13.7175 17.2959L13.2122 18.6557C13.0853 19.0038 12.8669 19.3112 12.5801 19.5459C12.2934 19.7805 11.9487 19.9336 11.5824 19.9891C11.471 20.007 11.3584 20.0163 11.2456 20.0169C10.9317 20.0173 10.6218 19.946 10.3396 19.8086C10.0574 19.6711 9.81029 19.471 9.61711 19.2236L8.71798 18.0864L7.51264 18.8881C7.20424 19.0934 6.84675 19.213 6.47688 19.2345C6.10701 19.256 5.73807 19.1787 5.40795 19.0106C5.07782 18.8424 4.79839 18.5894 4.59835 18.2775C4.39831 17.9657 4.28486 17.6062 4.26964 17.236L4.21119 15.7885L2.76367 15.73C2.39348 15.7148 2.03401 15.6014 1.72216 15.4013C1.41031 15.2013 1.15731 14.9219 0.989126 14.5917C0.820945 14.2616 0.743644 13.8927 0.765158 13.5228C0.786672 13.1529 0.906226 12.7954 1.11155 12.487L1.91325 11.2817L0.776113 10.3812C0.485781 10.1514 0.261794 9.84845 0.127118 9.50353C-0.00755713 9.15861 -0.0480754 8.78407 0.00971841 8.41833C0.0675123 8.05259 0.221539 7.70879 0.456004 7.4222C0.69047 7.13561 0.996938 6.91653 1.34399 6.78743L2.70382 6.28219L2.3141 4.88478C2.21472 4.5284 2.21184 4.15201 2.30573 3.79415C2.39962 3.43629 2.58693 3.1098 2.84847 2.84812C3.11001 2.58644 3.43639 2.39896 3.79421 2.30487C4.15202 2.21078 4.52841 2.21346 4.88484 2.31265L6.28225 2.70236L6.78749 1.34392C6.91659 0.996877 7.13567 0.690409 7.42226 0.455943C7.70885 0.221478 8.05265 0.0674512 8.41839 0.00965737C8.78414 -0.0481365 9.15867 -0.00761816 9.50359 0.127057C9.84852 0.261733 10.1514 0.48572 10.3812 0.776052L11.2818 1.91319L12.4871 1.11149C12.7955 0.906165 13.153 0.786611 13.5229 0.765097C13.8927 0.743583 14.2617 0.820884 14.5918 0.989064C14.9219 1.15725 15.2013 1.41025 15.4014 1.7221C15.6014 2.03395 15.7149 2.39342 15.7301 2.76361L15.7886 4.21112L17.2361 4.26958C17.6063 4.2848 17.9657 4.39825 18.2776 4.59829C18.5894 4.79833 18.8424 5.07776 19.0106 5.40789C19.1788 5.73801 19.2561 6.10695 19.2346 6.47682C19.2131 6.84669 19.0935 7.20418 18.8882 7.51258L18.0865 8.71653L19.2236 9.61705C19.5157 9.8453 19.7409 10.148 19.8756 10.4933C20.0103 10.8386 20.0495 11.2138 19.9891 11.5796ZM18.3607 10.7096L16.7197 9.41106C16.5828 9.30267 16.4916 9.14676 16.4642 8.97427C16.4369 8.80178 16.4754 8.62532 16.5722 8.47991L17.7288 6.7415C17.7973 6.63876 17.8373 6.51963 17.8445 6.39635C17.8518 6.27306 17.8262 6.15006 17.7702 6.03997C17.7142 5.92989 17.63 5.83667 17.5261 5.7699C17.4222 5.70313 17.3024 5.66521 17.179 5.66003L15.0912 5.57513C14.9165 5.56792 14.7509 5.49518 14.6273 5.37138C14.5038 5.24758 14.4314 5.08181 14.4245 4.90705L14.3382 2.81928C14.3328 2.69601 14.2947 2.57639 14.2279 2.47269C14.161 2.36899 14.0678 2.28493 13.9577 2.22913C13.8477 2.17333 13.7248 2.14778 13.6016 2.15512C13.4784 2.16246 13.3594 2.20242 13.2568 2.27089L11.5198 3.42612C11.3745 3.52374 11.1978 3.56291 11.0249 3.53582C10.852 3.50872 10.6957 3.41735 10.5872 3.27998L9.29003 1.64039C9.21338 1.54385 9.11246 1.4694 8.9976 1.42465C8.88274 1.37991 8.75805 1.36648 8.6363 1.38573C8.51454 1.40499 8.40008 1.45624 8.30463 1.53424C8.20918 1.61224 8.13616 1.7142 8.09304 1.82968L7.36371 3.788C7.30363 3.95204 7.1837 4.08727 7.02802 4.16654C6.87234 4.2458 6.69243 4.26322 6.52443 4.2153L4.51182 3.653C4.3929 3.61952 4.2672 3.6183 4.14764 3.64948C4.02809 3.68065 3.91899 3.7431 3.83155 3.83039C3.74412 3.91768 3.6815 4.02668 3.65013 4.14618C3.61876 4.26569 3.61977 4.39139 3.65306 4.51037L4.21536 6.52437C4.26227 6.69236 4.24438 6.87184 4.16525 7.02727C4.08612 7.1827 3.9515 7.30275 3.78807 7.36365L1.82974 8.09298C1.71426 8.1361 1.6123 8.20912 1.5343 8.30457C1.4563 8.40002 1.40505 8.51448 1.38579 8.63623C1.36654 8.75799 1.37997 8.88268 1.42471 8.99754C1.46946 9.1124 1.54391 9.21332 1.64045 9.28997L3.28004 10.5886C3.41698 10.6969 3.50817 10.8528 3.5355 11.0253C3.56283 11.1978 3.52431 11.3743 3.42758 11.5197L2.27095 13.2581C2.20279 13.3608 2.16313 13.4798 2.15604 13.6029C2.14896 13.726 2.17469 13.8487 2.23062 13.9586C2.28654 14.0685 2.37065 14.1615 2.47434 14.2282C2.57802 14.2949 2.69756 14.3329 2.82073 14.3382L4.9085 14.4245C5.08302 14.4317 5.24845 14.5042 5.37195 14.6277C5.49546 14.7512 5.56801 14.9167 5.57519 15.0912L5.66149 17.1789C5.66667 17.3023 5.70459 17.4221 5.77136 17.526C5.83813 17.6299 5.93134 17.7142 6.04143 17.7701C6.15152 17.8261 6.27452 17.8518 6.3978 17.8445C6.52108 17.8372 6.64021 17.7972 6.74295 17.7287L8.47997 16.5735C8.62533 16.4762 8.802 16.4372 8.97481 16.4643C9.14761 16.4914 9.30388 16.5825 9.41251 16.7196L10.7097 18.3592C10.7864 18.4558 10.8873 18.5302 11.0021 18.575C11.117 18.6197 11.2417 18.6331 11.3634 18.6139C11.4852 18.5946 11.5997 18.5434 11.6951 18.4654C11.7906 18.3874 11.8636 18.2854 11.9067 18.1699L12.636 16.2116C12.6969 16.0482 12.817 15.9136 12.9724 15.8344C13.1278 15.7553 13.3073 15.7374 13.4753 15.7843L15.4879 16.3452C15.6069 16.3791 15.7328 16.3805 15.8526 16.3491C15.9723 16.3178 16.0814 16.2549 16.1685 16.1671C16.2569 16.0806 16.3201 15.9717 16.3515 15.8521C16.3829 15.7325 16.3812 15.6066 16.3467 15.4879L15.7844 13.4739C15.7375 13.3059 15.7554 13.1264 15.8345 12.971C15.9136 12.8155 16.0482 12.6955 16.2117 12.6346L18.17 11.9066C18.2855 11.8635 18.3874 11.7905 18.4654 11.695C18.5434 11.5996 18.5947 11.4851 18.6139 11.3634C18.6332 11.2416 18.6198 11.1169 18.575 11.0021C18.5303 10.8872 18.4572 10.7863 18.3607 10.7096Z" stroke="#9DA4AE" stroke-width="0.2" mask="url(#path-1-outside-1_1182_4004)"/>
</g>
<defs>
<clipPath id="clip0_1182_4004">
<rect width="20" height="20" fill="white"/>
</clipPath>
</defs>
</svg>
