<svg width="19" height="19" viewBox="0 0 19 19" fill="none" xmlns="http://www.w3.org/2000/svg">
<path d="M7.84836 1.35577C8.46751 0.0270975 10.3567 0.0270965 10.9759 1.35577L12.4147 4.4436C12.6661 4.98311 13.1779 5.35492 13.7687 5.4273L17.15 5.84158C18.605 6.01983 19.1888 7.81657 18.1165 8.816L15.6244 11.1387C15.189 11.5445 14.9935 12.1461 15.1073 12.7303L15.7582 16.0742C16.0382 17.513 14.5098 18.6235 13.228 17.9125L10.2489 16.2601C9.72839 15.9714 9.09583 15.9714 8.57532 16.2601L5.59626 17.9125C4.31438 18.6235 2.78599 17.513 3.06606 16.0742L3.71696 12.7303C3.83068 12.1461 3.63521 11.5445 3.19979 11.1387L0.707734 8.816C-0.364583 7.81657 0.219212 6.01983 1.67418 5.84158L5.05552 5.4273C5.64632 5.35492 6.15807 4.98311 6.40947 4.4436L7.84836 1.35577Z" fill="#FFB547"/>
</svg>
