<svg width="19" height="19" viewBox="0 0 19 19" fill="none" xmlns="http://www.w3.org/2000/svg">
<path d="M8.43902 1.56696C8.87873 0.623367 10.2204 0.623368 10.6601 1.56696L12.099 4.65479C12.4233 5.35066 13.0833 5.83023 13.8453 5.92359L17.2267 6.33786C18.26 6.46446 18.6746 7.74046 17.913 8.45023L15.421 10.7729C14.8594 11.2963 14.6072 12.0723 14.7539 12.8259L15.4048 16.1697C15.6037 17.1915 14.5183 17.9802 13.6079 17.4752L10.6289 15.8229C9.95751 15.4505 9.14161 15.4505 8.47025 15.8229L5.49119 17.4752C4.58083 17.9802 3.4954 17.1915 3.6943 16.1697L4.3452 12.8258C4.49188 12.0723 4.23976 11.2963 3.67815 10.7729L1.18609 8.45023C0.424553 7.74046 0.839151 6.46446 1.87244 6.33786L5.25378 5.92359C6.0158 5.83023 6.67587 5.35066 7.00013 4.65479L8.43902 1.56696Z" stroke="#FFB547"/>
</svg>
