<svg width="20" height="20" viewBox="0 0 20 20" fill="none" xmlns="http://www.w3.org/2000/svg">
<g clip-path="url(#clip0_1182_4031)">
<path d="M12.7375 4.98792C12.6559 4.93629 12.5849 4.86859 12.5293 4.7884C12.4451 4.66699 12.4 4.52275 12.4 4.375L12.7375 4.98792ZM12.7375 4.98792L10.725 6.99988V5V4.99998C10.725 4.85661 10.6824 4.71647 10.6028 4.59727C10.5231 4.47807 10.4099 4.38517 10.2774 4.33031C10.145 4.27545 9.99921 4.26109 9.85859 4.28906C9.71798 4.31702 9.58881 4.38604 9.48741 4.4874L9.4874 4.48741L5.113 8.86181C5.04406 8.92857 4.98905 9.00835 4.95117 9.09653C4.91317 9.18498 4.89317 9.28012 4.89234 9.37638C4.8915 9.47265 4.90984 9.56811 4.9463 9.65721C4.98275 9.74631 5.03659 9.82726 5.10466 9.89533C5.17273 9.9634 5.25368 10.0172 5.34278 10.0537C5.43188 10.0901 5.52734 10.1085 5.62361 10.1077C5.71987 10.1068 5.81501 10.0868 5.90346 10.0488C5.99164 10.0109 6.07142 9.95593 6.13817 9.88699L9.27499 6.75017V8.75V8.75002C9.27502 8.89339 9.31756 9.03353 9.39722 9.15273C9.47689 9.27193 9.59011 9.36483 9.72257 9.41969C9.85502 9.47455 10.0008 9.48891 10.1414 9.46094C10.282 9.43298 10.4112 9.36396 10.5126 9.2626L10.5126 9.26259L13.762 6.01317C13.8252 6.11319 13.9123 6.19691 14.0164 6.25617C14.1642 6.34028 14.3369 6.36975 14.5043 6.33943C14.6716 6.3091 14.823 6.22092 14.9319 6.09029C15.0407 5.9597 15.1002 5.79501 15.1 5.625C15.1 5.62494 15.1 5.62489 15.1 5.62483L12.7375 4.98792ZM6.76264 11.9873C6.62668 11.8514 6.44227 11.775 6.24999 11.775C6.05771 11.775 5.8733 11.8514 5.73734 11.9873C5.60137 12.1233 5.52499 12.3077 5.52499 12.5V15C5.52499 15.1923 5.60137 15.3767 5.73734 15.5127C5.8733 15.6486 6.05771 15.725 6.24999 15.725C6.44227 15.725 6.62668 15.6486 6.76264 15.5127C6.89861 15.3767 6.97499 15.1923 6.97499 15V12.5C6.97499 12.3077 6.89861 12.1233 6.76264 11.9873Z" fill="#9DA4AE" stroke="#9DA4AE" stroke-width="0.2"/>
<path d="M8.75 9.275C8.55772 9.275 8.37331 9.35138 8.23735 9.48735C8.10138 9.62331 8.025 9.80772 8.025 10V15C8.025 15.1923 8.10138 15.3767 8.23735 15.5127C8.37331 15.6486 8.55772 15.725 8.75 15.725C8.94228 15.725 9.12669 15.6486 9.26265 15.5127C9.39862 15.3767 9.475 15.1923 9.475 15V10C9.475 9.80772 9.39862 9.62331 9.26265 9.48735C9.12669 9.35138 8.94228 9.275 8.75 9.275ZM11.7627 11.3623C11.6267 11.2264 11.4423 11.15 11.25 11.15C11.0577 11.15 10.8733 11.2264 10.7373 11.3623C10.6014 11.4983 10.525 11.6827 10.525 11.875V15C10.525 15.1923 10.6014 15.3767 10.7373 15.5127C10.8733 15.6486 11.0577 15.725 11.25 15.725C11.4423 15.725 11.6267 15.6486 11.7627 15.5127C11.8986 15.3767 11.975 15.1923 11.975 15V11.875C11.975 11.6827 11.8986 11.4983 11.7627 11.3623ZM13.75 8.025C13.5577 8.025 13.3733 8.10138 13.2373 8.23735C13.1014 8.37331 13.025 8.55772 13.025 8.75V15C13.025 15.1923 13.1014 15.3767 13.2373 15.5127C13.3733 15.6486 13.5577 15.725 13.75 15.725C13.9423 15.725 14.1267 15.6486 14.2627 15.5127C14.3986 15.3767 14.475 15.1923 14.475 15V8.75C14.475 8.55772 14.3986 8.37331 14.2627 8.23735C14.1267 8.10138 13.9423 8.025 13.75 8.025Z" fill="#9DA4AE" stroke="#9DA4AE" stroke-width="0.2"/>
<path d="M5 -0.1C4.14468 -0.1 3.32439 0.239776 2.71958 0.844581C2.11478 1.44939 1.775 2.26968 1.775 3.125V16.875C1.775 17.7303 2.11478 18.5506 2.71958 19.1554C3.32439 19.7602 4.14468 20.1 5 20.1H15C15.8553 20.1 16.6756 19.7602 17.2804 19.1554C17.8852 18.5506 18.225 17.7303 18.225 16.875V3.125C18.225 2.26968 17.8852 1.44939 17.2804 0.844581C16.6756 0.239776 15.8553 -0.1 15 -0.1H5ZM3.225 3.125C3.225 2.65424 3.41201 2.20276 3.74489 1.86989C4.07776 1.53701 4.52924 1.35 5 1.35H15C15.4708 1.35 15.9222 1.53701 16.2551 1.86989C16.588 2.20276 16.775 2.65424 16.775 3.125V16.875C16.775 17.3458 16.588 17.7972 16.2551 18.1301C15.9222 18.463 15.4708 18.65 15 18.65H5C4.52924 18.65 4.07776 18.463 3.74489 18.1301C3.41201 17.7972 3.225 17.3458 3.225 16.875V3.125Z" fill="#9DA4AE" stroke="#9DA4AE" stroke-width="0.2"/>
</g>
<defs>
<clipPath id="clip0_1182_4031">
<rect width="20" height="20" fill="white"/>
</clipPath>
</defs>
</svg>
