<svg width="25" height="25" viewBox="0 0 25 25" fill="none" xmlns="http://www.w3.org/2000/svg">
  <g clip-path="url(#clip0_1182_4093)">
  <path d="M11.4854 19.3121C15.9019 19.3121 19.4821 15.7319 19.4821 11.3154C19.4821 6.89893 15.9019 3.31873 11.4854 3.31873C7.06898 3.31873 3.48877 6.89893 3.48877 11.3154C3.48877 15.7319 7.06898 19.3121 11.4854 19.3121Z" fill="white" fill-opacity="0.01"/>
  <path d="M21.4813 21.3112L17.1331 16.963M19.4821 11.3154C19.4821 15.7319 15.9019 19.3121 11.4854 19.3121C7.06898 19.3121 3.48877 15.7319 3.48877 11.3154C3.48877 6.89893 7.06898 3.31873 11.4854 3.31873C15.9019 3.31873 19.4821 6.89893 19.4821 11.3154Z" stroke="#6C737F" stroke-width="1.99943" stroke-linecap="round" stroke-linejoin="round"/>
  </g>
  <defs>
  <clipPath id="clip0_1182_4093">
  <rect width="23.99" height="23.99" fill="white" transform="translate(0.48999 0.319946)"/>
  </clipPath>
  </defs>
</svg>