<svg width="36" height="36" viewBox="0 0 36 36" fill="none" xmlns="http://www.w3.org/2000/svg">
<g clip-path="url(#clip0_875_10448)">
<path d="M25.7399 25.81H13.7999C13.4684 25.81 13.1505 25.6783 12.916 25.4439C12.6816 25.2094 12.5499 24.8915 12.5499 24.56C12.5499 24.2285 12.6816 23.9105 12.916 23.6761C13.1505 23.4417 13.4684 23.31 13.7999 23.31H25.7399C26.0714 23.31 26.3894 23.4417 26.6238 23.6761C26.8582 23.9105 26.9899 24.2285 26.9899 24.56C26.9899 24.8915 26.8582 25.2094 26.6238 25.4439C26.3894 25.6783 26.0714 25.81 25.7399 25.81ZM32.6199 25.81H32.3199C31.9884 25.81 31.6705 25.6783 31.436 25.4439C31.2016 25.2094 31.0699 24.8915 31.0699 24.56C31.0699 24.2285 31.2016 23.9105 31.436 23.6761C31.6705 23.4417 31.9884 23.31 32.3199 23.31H32.6199C32.7022 23.3113 32.7839 23.2962 32.8603 23.2657C32.9366 23.2351 33.0062 23.1897 33.0648 23.132C33.1234 23.0743 33.17 23.0055 33.2018 22.9296C33.2336 22.8537 33.2499 22.7722 33.2499 22.69V18.4C33.2495 18.2593 33.202 18.1228 33.115 18.0123C33.028 17.9017 32.9065 17.8235 32.7699 17.79H25.3999C24.5715 17.79 23.7769 17.4616 23.1902 16.8768C22.6035 16.2919 22.2726 15.4984 22.2699 14.67V7.96998C22.2713 7.88818 22.2562 7.80695 22.2255 7.73112C22.1948 7.65529 22.1492 7.5864 22.0913 7.52856C22.0335 7.47071 21.9646 7.4251 21.8888 7.39442C21.8129 7.36374 21.7317 7.34862 21.6499 7.34998H6.91992C6.5884 7.34998 6.27046 7.21828 6.03604 6.98386C5.80162 6.74944 5.66992 6.4315 5.66992 6.09998C5.66992 5.76845 5.80162 5.45051 6.03604 5.21609C6.27046 4.98167 6.5884 4.84998 6.91992 4.84998H21.6499C22.0596 4.84998 22.4654 4.93068 22.8439 5.08747C23.2224 5.24427 23.5664 5.47408 23.8561 5.7638C24.1458 6.05352 24.3756 6.39747 24.5324 6.776C24.6892 7.15454 24.7699 7.56025 24.7699 7.96998V14.65C24.7699 14.7322 24.7863 14.8137 24.8181 14.8896C24.8498 14.9655 24.8964 15.0343 24.955 15.092C25.0137 15.1497 25.0832 15.1951 25.1596 15.2257C25.236 15.2562 25.3177 15.2713 25.3999 15.27H32.6199C32.8482 15.2729 33.0758 15.2964 33.2999 15.34L33.5199 15.41C34.1674 15.5993 34.7355 15.9946 35.138 16.5361C35.5404 17.0775 35.7553 17.7354 35.7499 18.41V22.7C35.7446 23.5266 35.4125 24.3176 34.8261 24.9003C34.2397 25.483 33.4466 25.81 32.6199 25.81Z" fill="black"/>
<path d="M33.05 17.83C32.793 17.8299 32.5423 17.7501 32.3327 17.6014C32.1231 17.4527 31.9649 17.2425 31.88 17L29.88 11.44C29.8261 11.365 29.7557 11.3034 29.6742 11.26C29.5927 11.2167 29.5022 11.1927 29.41 11.19H23.5C23.1684 11.19 22.8505 11.0583 22.6161 10.8239C22.3816 10.5895 22.25 10.2715 22.25 9.94C22.25 9.60848 22.3816 9.29054 22.6161 9.05612C22.8505 8.8217 23.1684 8.69 23.5 8.69H29.41C29.9641 8.69216 30.5074 8.84379 30.9826 9.1289C31.4578 9.41402 31.8473 9.82205 32.11 10.31C32.1408 10.3681 32.1675 10.4282 32.19 10.49L34.19 16.16C34.2993 16.473 34.2808 16.8166 34.1386 17.1161C33.9963 17.4156 33.7417 17.647 33.43 17.76C33.3067 17.7992 33.1791 17.8227 33.05 17.83ZM29.03 31.15C28.13 31.15 27.2504 30.8832 26.5021 30.3832C25.7539 29.8832 25.1707 29.1726 24.8263 28.3412C24.4819 27.5098 24.3918 26.595 24.5674 25.7123C24.7429 24.8297 25.1763 24.019 25.8126 23.3827C26.4489 22.7463 27.2597 22.313 28.1423 22.1374C29.0249 21.9619 29.9398 22.052 30.7712 22.3964C31.6026 22.7407 32.3132 23.3239 32.8131 24.0722C33.3131 24.8204 33.58 25.7001 33.58 26.6C33.58 27.8067 33.1006 28.964 32.2473 29.8173C31.394 30.6706 30.2367 31.15 29.03 31.15ZM29.03 24.55C28.6225 24.5401 28.2214 24.6518 27.8777 24.8709C27.5341 25.0901 27.2636 25.4066 27.1007 25.7802C26.9379 26.1538 26.8901 26.5675 26.9634 26.9684C27.0368 27.3693 27.228 27.7392 27.5126 28.031C27.7972 28.3227 28.1623 28.5229 28.5613 28.6062C28.9602 28.6894 29.375 28.6518 29.7525 28.4983C30.13 28.3447 30.4531 28.0821 30.6807 27.7439C30.9082 27.4058 31.0298 27.0076 31.03 26.6C31.0301 26.0649 30.821 25.5509 30.4473 25.1678C30.0736 24.7848 29.5649 24.5631 29.03 24.55ZM10.5 31.15C9.60005 31.15 8.72035 30.8832 7.97211 30.3832C7.22387 29.8832 6.64068 29.1726 6.2963 28.3412C5.95192 27.5098 5.86182 26.595 6.03738 25.7123C6.21294 24.8297 6.64629 24.019 7.28262 23.3827C7.91895 22.7463 8.72968 22.313 9.61229 22.1374C10.4949 21.9619 11.4098 22.052 12.2412 22.3964C13.0726 22.7407 13.7832 23.3239 14.2831 24.0722C14.7831 24.8204 15.05 25.7001 15.05 26.6C15.05 27.8067 14.5706 28.964 13.7173 29.8173C12.864 30.6706 11.7067 31.15 10.5 31.15ZM10.5 24.55C10.0945 24.55 9.69816 24.6702 9.36103 24.8955C9.02391 25.1207 8.76116 25.4409 8.606 25.8155C8.45084 26.1901 8.41024 26.6023 8.48934 26.9999C8.56844 27.3976 8.76369 27.7629 9.05038 28.0496C9.33708 28.3363 9.70236 28.5315 10.1 28.6106C10.4977 28.6897 10.9099 28.6491 11.2845 28.494C11.659 28.3388 11.9792 28.076 12.2045 27.7389C12.4297 27.4018 12.55 27.0055 12.55 26.6C12.55 26.0563 12.334 25.5349 11.9495 25.1504C11.5651 24.766 11.0436 24.55 10.5 24.55Z" fill="black"/>
<path d="M23.5 25.81C23.3355 25.8113 23.1723 25.7799 23.0201 25.7175C22.8678 25.6552 22.7295 25.5632 22.6131 25.4468C22.4968 25.3305 22.4048 25.1922 22.3424 25.0399C22.2801 24.8877 22.2487 24.7245 22.25 24.56V13.63C22.25 13.2985 22.3817 12.9805 22.6161 12.7461C22.8505 12.5117 23.1685 12.38 23.5 12.38C23.8315 12.38 24.1495 12.5117 24.3839 12.7461C24.6183 12.9805 24.75 13.2985 24.75 13.63V24.56C24.7513 24.7245 24.7199 24.8877 24.6576 25.0399C24.5952 25.1922 24.5032 25.3305 24.3869 25.4468C24.2705 25.5632 24.1322 25.6552 23.9799 25.7175C23.8277 25.7799 23.6645 25.8113 23.5 25.81ZM10.69 13.67H2.5C2.16848 13.67 1.85054 13.5383 1.61612 13.3039C1.3817 13.0694 1.25 12.7515 1.25 12.42C1.25 12.0885 1.3817 11.7705 1.61612 11.5361C1.85054 11.3017 2.16848 11.17 2.5 11.17H10.69C11.0215 11.17 11.3395 11.3017 11.5739 11.5361C11.8083 11.7705 11.94 12.0885 11.94 12.42C11.94 12.7515 11.8083 13.0694 11.5739 13.3039C11.3395 13.5383 11.0215 13.67 10.69 13.67ZM12.23 19.25H7.95C7.61848 19.25 7.30054 19.1183 7.06612 18.8839C6.8317 18.6494 6.7 18.3315 6.7 18C6.7 17.6685 6.8317 17.3505 7.06612 17.1161C7.30054 16.8817 7.61848 16.75 7.95 16.75H12.23C12.5615 16.75 12.8795 16.8817 13.1139 17.1161C13.3483 17.3505 13.48 17.6685 13.48 18C13.48 18.3315 13.3483 18.6494 13.1139 18.8839C12.8795 19.1183 12.5615 19.25 12.23 19.25Z" fill="black"/>
</g>
<defs>
<clipPath id="clip0_875_10448">
<rect width="35" height="35" fill="white" transform="translate(0.5 0.5)"/>
</clipPath>
</defs>
</svg>
