<svg width="20" height="18" viewBox="0 0 20 18" fill="none" xmlns="http://www.w3.org/2000/svg">
<path d="M14.9994 12.1974C16.2126 12.8069 17.2529 13.785 18.0121 15.008C18.1625 15.2503 18.2376 15.3713 18.2636 15.539C18.3165 15.8798 18.0834 16.2988 17.7661 16.4337C17.6098 16.5 17.4341 16.5 17.0827 16.5M13.3327 8.61017C14.5676 7.99658 15.4161 6.72242 15.4161 5.25C15.4161 3.77758 14.5676 2.50342 13.3327 1.88983M11.6661 5.25C11.6661 7.32108 9.98714 9 7.91606 9C5.84497 9 4.16606 7.32108 4.16606 5.25C4.16606 3.17892 5.84506 1.5 7.91606 1.5C9.98714 1.5 11.6661 3.17892 11.6661 5.25ZM2.13214 14.7819C3.46072 12.7872 5.55722 11.5 7.91606 11.5C10.275 11.5 12.3715 12.7872 13.7001 14.7819C13.9911 15.219 14.1366 15.4375 14.1199 15.7166C14.1068 15.9339 13.9644 16.2 13.7907 16.3313C13.5677 16.5 13.261 16.5 12.6475 16.5H3.18472C2.57122 16.5 2.26447 16.5 2.04139 16.3313C1.86781 16.2 1.72531 15.9339 1.71222 15.7166C1.69556 15.4375 1.84106 15.219 2.13214 14.7819Z" stroke="#9DA4AE" stroke-width="1.66667" stroke-linecap="round" stroke-linejoin="round"/>
</svg>
