<svg width="19" height="18" viewBox="0 0 19 18" fill="none" xmlns="http://www.w3.org/2000/svg">
<path d="M18.7491 4.28185C18.7491 2.34175 17.3356 0.754395 15.608 0.754395C14.1553 0.754395 12.9381 1.90082 12.5847 3.39998H4.2215C3.12211 3.39998 2.2583 4.37003 2.2583 5.60464V13.5414C2.2583 14.776 3.12211 15.7461 4.2215 15.7461H15.2154C16.3148 15.7461 17.1786 14.776 17.1786 13.5414V7.32427C18.1209 6.70697 18.7491 5.60464 18.7491 4.28185ZM16.3933 12.2186H13.2129C12.5847 12.2186 12.0743 11.6454 12.0743 10.8958C12.0743 10.1462 12.5847 9.57302 13.2129 9.57302H16.3933V12.2186ZM16.3933 8.69116H13.2129C12.1528 8.69116 11.289 9.66121 11.289 10.8958C11.289 12.1304 12.1528 13.1005 13.2129 13.1005H16.3933V13.5414C16.3933 14.291 15.8829 14.8642 15.2154 14.8642H4.2215C3.55401 14.8642 3.04358 14.291 3.04358 13.5414V5.60464C3.04358 4.85506 3.55401 4.28185 4.2215 4.28185H12.4669C12.4669 6.22194 13.8804 7.8093 15.608 7.8093C15.8829 7.8093 16.1577 7.7652 16.3933 7.67702V8.69116ZM15.608 6.92743C14.3123 6.92743 13.2522 5.73692 13.2522 4.28185C13.2522 2.82677 14.3123 1.63626 15.608 1.63626C16.9037 1.63626 17.9639 2.82677 17.9639 4.28185C17.9639 5.73692 16.9037 6.92743 15.608 6.92743Z" fill="black"/>
<path d="M16.8755 4.12755H16.1259V3.37797C16.1259 3.15309 15.976 3.00317 15.7511 3.00317C15.5262 3.00317 15.3763 3.15309 15.3763 3.37797V4.12755H14.6267C14.4019 4.12755 14.252 4.27747 14.252 4.50234C14.252 4.72722 14.4019 4.87713 14.6267 4.87713H15.3763V5.62672C15.3763 5.85159 15.5262 6.00151 15.7511 6.00151C15.976 6.00151 16.1259 5.85159 16.1259 5.62672V4.87713H16.8755C17.1004 4.87713 17.2503 4.72722 17.2503 4.50234C17.2503 4.27747 17.1004 4.12755 16.8755 4.12755Z" fill="black"/>
<path d="M13.6896 11.2486C14.0001 11.2486 14.2518 10.9969 14.2518 10.6865C14.2518 10.376 14.0001 10.1243 13.6896 10.1243C13.3791 10.1243 13.1274 10.376 13.1274 10.6865C13.1274 10.9969 13.3791 11.2486 13.6896 11.2486Z" fill="black"/>
</svg>
